<svg width="245" height="61" viewBox="0 0 245 61" fill="none" xmlns="http://www.w3.org/2000/svg">
<path d="M1 6V6C7.00397 3.09528 13.8461 2.42343 20.3004 4.10482L20.4952 4.15557C25.1406 5.36573 30.0158 5.3878 34.6719 4.21976L38.7841 3.18817C44.5076 1.7524 50.4999 1.77673 56.2115 3.25894L58.5548 3.86706C63.9089 5.25648 69.5579 4.99434 74.7603 3.11506V3.11506C80.3569 1.09335 86.4592 0.946911 92.1464 2.69783L98 4.5" stroke="#5E1EE5" stroke-width="2"/>
<path d="M231.5 34C232.889 40.798 238.202 46.1105 245 47.5C238.202 48.8895 232.889 54.202 231.5 61C230.111 54.202 224.798 48.8895 218 47.5C224.798 46.1105 230.111 40.798 231.5 34Z" fill="#2DBE5F"/>
</svg>
