<svg width="1307" height="83" viewBox="0 0 1307 83" fill="none" xmlns="http://www.w3.org/2000/svg">
<path d="M1170 82V82C1176 79.0953 1182.85 78.4234 1189.3 80.1048L1189.5 80.1556C1194.14 81.3657 1199.02 81.3878 1203.67 80.2198L1207.78 79.1882C1213.51 77.7524 1219.5 77.7767 1225.21 79.2589L1227.55 79.8671C1232.91 81.2565 1238.56 80.9943 1243.76 79.1151V79.1151C1249.36 77.0934 1255.46 76.9469 1261.15 78.6978L1267 80.5" stroke="#5E1EE5" stroke-width="2"/>
<path d="M-23 6V6C-16.996 3.09528 -10.1539 2.42343 -3.69961 4.10482L-3.50481 4.15557C1.14058 5.36573 6.01576 5.3878 10.6719 4.21976L14.7841 3.18817C20.5076 1.7524 26.4999 1.77673 32.2115 3.25894L34.5548 3.86706C39.9089 5.25648 45.5579 4.99434 50.7603 3.11506V3.11506C56.3569 1.09335 62.4592 0.946911 68.1464 2.69783L74 4.5" stroke="#5E1EE5" stroke-width="2"/>
<path d="M207.5 34C208.889 40.798 214.202 46.1105 221 47.5C214.202 48.8895 208.889 54.202 207.5 61C206.111 54.202 200.798 48.8895 194 47.5C200.798 46.1105 206.111 40.798 207.5 34Z" fill="#2DBE5F"/>
<path d="M1296 14C1297.13 19.5391 1301.46 23.8679 1307 25C1301.46 26.1321 1297.13 30.4609 1296 36C1294.87 30.4609 1290.54 26.1321 1285 25C1290.54 23.8679 1294.87 19.5391 1296 14Z" fill="#2DBE5F"/>
</svg>
