<svg width="141" height="39" viewBox="0 0 141 39" fill="none" xmlns="http://www.w3.org/2000/svg">
<g filter="url(#filter0_d_4010_3)">
<path d="M111.715 30.4354V11.2622H125.083V15.0257H116.349V18.9577H124.4V22.7306H116.349V26.6719H125.083V30.4354H111.715Z" fill="black"/>
<path d="M90.4366 30.4354V11.2622H98.3567C99.7922 11.2622 101.031 11.5212 102.073 12.0392C103.122 12.551 103.93 13.2875 104.498 14.2487C105.066 15.2036 105.35 16.3364 105.35 17.647C105.35 18.9764 105.06 20.1061 104.479 21.0361C103.899 21.9598 103.075 22.665 102.008 23.1518C100.941 23.6324 99.6768 23.8727 98.2163 23.8727H93.2077V20.2216H97.355C98.054 20.2216 98.6376 20.1311 99.1057 19.9501C99.58 19.7628 99.9389 19.482 100.182 19.1075C100.426 18.7268 100.547 18.24 100.547 17.647C100.547 17.0541 100.426 16.5642 100.182 16.1772C99.9389 15.784 99.58 15.4907 99.1057 15.2972C98.6314 15.0975 98.0478 14.9976 97.355 14.9976H95.0707V30.4354H90.4366ZM101.231 21.6727L106.005 30.4354H100.95L96.269 21.6727H101.231Z" fill="black"/>
<path d="M70.3429 30.4354V11.2622H83.7117V15.0257H74.977V18.9577H83.0283V22.7306H74.977V26.6719H83.7117V30.4354H70.3429Z" fill="black"/>
<path d="M46.7993 30.4354V11.2622H51.4335V18.9577H58.9885V11.2622H63.6133V30.4354H58.9885V22.7306H51.4335V30.4354H46.7993Z" fill="black"/>
<path d="M25.7788 30.4354V11.2622H33.699C35.1345 11.2622 36.3734 11.5431 37.4157 12.1048C38.4642 12.6603 39.2725 13.4373 39.8404 14.4359C40.4084 15.4283 40.6924 16.5829 40.6924 17.8998C40.6924 19.223 40.4022 20.3807 39.8217 21.3731C39.2475 22.3592 38.4268 23.1238 37.3595 23.6668C36.2923 24.2097 35.0253 24.4812 33.5586 24.4812H28.6717V20.8301H32.6973C33.3963 20.8301 33.9799 20.7084 34.448 20.465C34.9223 20.2216 35.2812 19.8814 35.5246 19.4445C35.768 19.0014 35.8897 18.4865 35.8897 17.8998C35.8897 17.3069 35.768 16.7951 35.5246 16.3645C35.2812 15.9276 34.9223 15.5905 34.448 15.3534C33.9736 15.1162 33.3901 14.9976 32.6973 14.9976H30.413V30.4354H25.7788Z" fill="black"/>
<path d="M14.916 17.0104C14.8536 16.3238 14.5758 15.7902 14.0828 15.4095C13.596 15.0225 12.9001 14.829 11.9951 14.829C11.3959 14.829 10.8966 14.907 10.4972 15.0631C10.0977 15.2191 9.79815 15.4344 9.59843 15.709C9.39871 15.9774 9.29573 16.2864 9.28948 16.6359C9.277 16.923 9.33317 17.1757 9.458 17.3942C9.58907 17.6126 9.7763 17.8061 10.0197 17.9746C10.2694 18.1369 10.5689 18.2805 10.9185 18.4053C11.268 18.5301 11.6612 18.6393 12.0981 18.7329L13.7458 19.1074C14.6944 19.3134 15.5308 19.588 16.2548 19.9313C16.985 20.2745 17.5966 20.6833 18.0897 21.1577C18.589 21.632 18.9666 22.1781 19.2225 22.796C19.4784 23.4139 19.6094 24.1067 19.6157 24.8744C19.6094 26.0852 19.3036 27.1243 18.6982 27.9919C18.0928 28.8594 17.2222 29.5241 16.0862 29.986C14.9566 30.4478 13.5928 30.6788 11.9951 30.6788C10.3911 30.6788 8.99302 30.4385 7.80094 29.9579C6.60885 29.4773 5.68203 28.7471 5.02045 27.7672C4.35887 26.7873 4.01872 25.5484 4 24.0505H8.43755C8.475 24.6684 8.64039 25.1833 8.93373 25.5952C9.22707 26.0072 9.62963 26.3192 10.1414 26.5314C10.6594 26.7436 11.2586 26.8497 11.9389 26.8497C12.563 26.8497 13.0935 26.7655 13.5304 26.597C13.9736 26.4284 14.3137 26.1944 14.5509 25.8948C14.7881 25.5952 14.9098 25.252 14.916 24.865C14.9098 24.503 14.7974 24.1941 14.579 23.9382C14.3605 23.676 14.0235 23.4514 13.5679 23.2641C13.1185 23.0706 12.5443 22.8928 11.8453 22.7305L9.84184 22.2624C8.18166 21.8817 6.87411 21.2669 5.91919 20.4181C4.96428 19.563 4.48994 18.4084 4.49618 16.9542C4.48994 15.7683 4.80825 14.7292 5.4511 13.8367C6.09395 12.9442 6.98333 12.2483 8.11925 11.749C9.25516 11.2497 10.5502 11 12.0044 11C13.4899 11 14.7787 11.2528 15.8709 11.7583C16.9694 12.2576 17.8213 12.9598 18.4267 13.8647C19.0321 14.7697 19.3411 15.8183 19.3536 17.0104H14.916Z" fill="black"/>
<path d="M118.591 9C118.591 7.21997 119.119 5.47991 120.108 3.99987C121.097 2.51983 122.502 1.36627 124.147 0.685084C125.791 0.0038955 127.601 -0.174335 129.347 0.172932C131.093 0.520199 132.696 1.37737 133.955 2.63604C135.214 3.89471 136.071 5.49836 136.418 7.24419C136.765 8.99002 136.587 10.7996 135.906 12.4442C135.225 14.0887 134.071 15.4943 132.591 16.4832C131.111 17.4722 129.371 18 127.591 18V9H118.591Z" fill="#5E1EE5"/>
</g>
<defs>
<filter id="filter0_d_4010_3" x="0" y="0" width="140.591" height="38.6787" filterUnits="userSpaceOnUse" color-interpolation-filters="sRGB">
<feFlood flood-opacity="0" result="BackgroundImageFix"/>
<feColorMatrix in="SourceAlpha" type="matrix" values="0 0 0 0 0 0 0 0 0 0 0 0 0 0 0 0 0 0 127 0" result="hardAlpha"/>
<feOffset dy="4"/>
<feGaussianBlur stdDeviation="2"/>
<feComposite in2="hardAlpha" operator="out"/>
<feColorMatrix type="matrix" values="0 0 0 0 0 0 0 0 0 0 0 0 0 0 0 0 0 0 0.25 0"/>
<feBlend mode="normal" in2="BackgroundImageFix" result="effect1_dropShadow_4010_3"/>
<feBlend mode="normal" in="SourceGraphic" in2="effect1_dropShadow_4010_3" result="shape"/>
</filter>
</defs>
</svg>
